<mxfile host="65bd71144e">
    <diagram id="80UEURkZbvNo4EfNswht" name="第 1 页">
        <mxGraphModel dx="825" dy="1681" grid="1" gridSize="10" guides="1" tooltips="1" connect="1" arrows="1" fold="1" page="1" pageScale="1" pageWidth="827" pageHeight="1169" math="0" shadow="0">
            <root>
                <mxCell id="0"/>
                <mxCell id="1" parent="0"/>
                <mxCell id="3" value="是否大于286" style="shape=rhombus;html=1;dashed=0;whitespace=wrap;perimeter=rhombusPerimeter;" vertex="1" parent="1">
                    <mxGeometry x="254" y="-790" width="100" height="50" as="geometry"/>
                </mxCell>
                <mxCell id="6" value="" style="shape=singleArrow;direction=south;whiteSpace=wrap;html=1;" vertex="1" parent="1">
                    <mxGeometry x="299" y="-820" width="10" height="30" as="geometry"/>
                </mxCell>
                <mxCell id="9" value="非归并排序" style="shape=ext;double=1;rounded=0;whiteSpace=wrap;html=1;" vertex="1" parent="1">
                    <mxGeometry x="259" y="-710" width="90" height="30" as="geometry"/>
                </mxCell>
                <mxCell id="10" value="是否大于47" style="shape=rhombus;html=1;dashed=0;whitespace=wrap;perimeter=rhombusPerimeter;" vertex="1" parent="1">
                    <mxGeometry x="259" y="-660" width="90" height="50" as="geometry"/>
                </mxCell>
                <mxCell id="11" value="" style="shape=singleArrow;direction=south;whiteSpace=wrap;html=1;" vertex="1" parent="1">
                    <mxGeometry x="299" y="-680" width="10" height="20" as="geometry"/>
                </mxCell>
                <mxCell id="12" value="" style="shape=singleArrow;direction=south;whiteSpace=wrap;html=1;" vertex="1" parent="1">
                    <mxGeometry x="299" y="-610" width="10" height="20" as="geometry"/>
                </mxCell>
                <mxCell id="13" value="快速排序" style="shape=ext;double=1;rounded=0;whiteSpace=wrap;html=1;" vertex="1" parent="1">
                    <mxGeometry x="264" y="-590" width="80" height="30" as="geometry"/>
                </mxCell>
                <mxCell id="14" value="" style="shape=singleArrow;direction=south;whiteSpace=wrap;html=1;" vertex="1" parent="1">
                    <mxGeometry x="299" y="-740" width="10" height="30" as="geometry"/>
                </mxCell>
                <mxCell id="15" value="" style="shape=singleArrow;direction=south;whiteSpace=wrap;html=1;" vertex="1" parent="1">
                    <mxGeometry x="299" y="-560" width="10" height="40" as="geometry"/>
                </mxCell>
                <mxCell id="16" value="找到5个轴&lt;br&gt;e3-2*7th e3-7th e3 e3+7th e3+2*7th" style="shape=ext;double=1;rounded=0;whiteSpace=wrap;html=1;" vertex="1" parent="1">
                    <mxGeometry x="194" y="-520" width="230" height="30" as="geometry"/>
                </mxCell>
                <mxCell id="17" value="" style="shape=singleArrow;direction=south;whiteSpace=wrap;html=1;" vertex="1" parent="1">
                    <mxGeometry x="299" y="-490" width="10" height="40" as="geometry"/>
                </mxCell>
                <mxCell id="18" value="5个轴有相同的" style="html=1;whiteSpace=wrap;aspect=fixed;shape=isoRectangle;" vertex="1" parent="1">
                    <mxGeometry x="253.17000000000002" y="-450" width="101.66" height="61" as="geometry"/>
                </mxCell>
                <mxCell id="19" value="" style="shape=singleArrow;direction=south;whiteSpace=wrap;html=1;" vertex="1" parent="1">
                    <mxGeometry x="299" y="-385" width="10" height="35" as="geometry"/>
                </mxCell>
                <mxCell id="20" value="e2,e4为轴的双轴快排" style="html=1;dashed=0;whitespace=wrap;" vertex="1" parent="1">
                    <mxGeometry x="241.5" y="-350" width="125" height="30" as="geometry"/>
                </mxCell>
                <mxCell id="21" value="" style="shape=singleArrow;direction=south;whiteSpace=wrap;html=1;" vertex="1" parent="1">
                    <mxGeometry x="299" y="-320" width="10" height="40" as="geometry"/>
                </mxCell>
                <mxCell id="22" value="分为3部分" style="html=1;dashed=0;whitespace=wrap;" vertex="1" parent="1">
                    <mxGeometry x="247.32999999999998" y="-275" width="120" height="30" as="geometry"/>
                </mxCell>
                <mxCell id="23" value="" style="shape=singleArrow;direction=south;whiteSpace=wrap;html=1;" vertex="1" parent="1">
                    <mxGeometry x="299" y="-245" width="10" height="45" as="geometry"/>
                </mxCell>
                <mxCell id="24" value="中间部分是否过长" style="html=1;whiteSpace=wrap;aspect=fixed;shape=isoRectangle;" vertex="1" parent="1">
                    <mxGeometry x="247.33000000000004" y="-200" width="116.67" height="70" as="geometry"/>
                </mxCell>
                <mxCell id="25" value="" style="shape=singleArrow;direction=south;whiteSpace=wrap;html=1;" vertex="1" parent="1">
                    <mxGeometry x="299" y="-130" width="10" height="40" as="geometry"/>
                </mxCell>
                <mxCell id="26" value="中间部分不变" style="html=1;dashed=0;whitespace=wrap;" vertex="1" parent="1">
                    <mxGeometry x="254.83000000000004" y="-90" width="100" height="30" as="geometry"/>
                </mxCell>
                <mxCell id="28" value="" style="shape=singleArrow;whiteSpace=wrap;html=1;" vertex="1" parent="1">
                    <mxGeometry x="364" y="-170" width="50" height="10" as="geometry"/>
                </mxCell>
                <mxCell id="29" value="中间部分分为3部分" style="html=1;dashed=0;whitespace=wrap;" vertex="1" parent="1">
                    <mxGeometry x="414" y="-180" width="100" height="30" as="geometry"/>
                </mxCell>
                <mxCell id="30" value="" style="shape=singleArrow;direction=south;whiteSpace=wrap;html=1;" vertex="1" parent="1">
                    <mxGeometry x="459" y="-150" width="10" height="60" as="geometry"/>
                </mxCell>
                <mxCell id="31" value="中间部分为三部分的中间" style="html=1;dashed=0;whitespace=wrap;" vertex="1" parent="1">
                    <mxGeometry x="444" y="-90" width="140" height="30" as="geometry"/>
                </mxCell>
                <mxCell id="35" value="" style="line;strokeWidth=2;direction=south;html=1;" vertex="1" parent="1">
                    <mxGeometry x="304" y="-60" width="10" height="40" as="geometry"/>
                </mxCell>
                <mxCell id="36" value="" style="line;strokeWidth=2;html=1;" vertex="1" parent="1">
                    <mxGeometry x="309" y="-30" width="145" height="10" as="geometry"/>
                </mxCell>
                <mxCell id="37" value="" style="line;strokeWidth=2;direction=south;html=1;" vertex="1" parent="1">
                    <mxGeometry x="449" y="-60" width="10" height="40" as="geometry"/>
                </mxCell>
                <mxCell id="39" value="" style="endArrow=classic;html=1;" edge="1" parent="1">
                    <mxGeometry width="50" height="50" relative="1" as="geometry">
                        <mxPoint x="375.67" y="-20" as="sourcePoint"/>
                        <mxPoint x="375.67" y="40" as="targetPoint"/>
                    </mxGeometry>
                </mxCell>
                <mxCell id="41" value="递归3部分" style="rounded=0;whiteSpace=wrap;html=1;" vertex="1" parent="1">
                    <mxGeometry x="319" y="40" width="120" height="30" as="geometry"/>
                </mxCell>
                <mxCell id="45" value="" style="shape=singleArrow;direction=west;whiteSpace=wrap;html=1;" vertex="1" parent="1">
                    <mxGeometry x="190" y="-424.25" width="63.17" height="9.5" as="geometry"/>
                </mxCell>
                <mxCell id="46" value="e3为轴单轴快排" style="shape=ext;double=1;rounded=0;whiteSpace=wrap;html=1;" vertex="1" parent="1">
                    <mxGeometry x="90" y="-434.12" width="100" height="29.25" as="geometry"/>
                </mxCell>
                <mxCell id="47" value="分为3部分" style="html=1;dashed=0;whitespace=wrap;" vertex="1" parent="1">
                    <mxGeometry x="90" y="-364.87" width="100" height="30" as="geometry"/>
                </mxCell>
                <mxCell id="48" value="" style="shape=singleArrow;direction=south;whiteSpace=wrap;html=1;" vertex="1" parent="1">
                    <mxGeometry x="135" y="-404.87" width="10" height="40" as="geometry"/>
                </mxCell>
                <mxCell id="49" value="递归2部分" style="rounded=0;whiteSpace=wrap;html=1;" vertex="1" parent="1">
                    <mxGeometry x="90" y="-290" width="100" height="30" as="geometry"/>
                </mxCell>
                <mxCell id="51" value="" style="shape=singleArrow;direction=south;whiteSpace=wrap;html=1;" vertex="1" parent="1">
                    <mxGeometry x="135" y="-334.87" width="10" height="44.87" as="geometry"/>
                </mxCell>
                <mxCell id="52" value="" style="shape=curlyBracket;whiteSpace=wrap;html=1;rounded=1;flipH=1;" vertex="1" parent="1">
                    <mxGeometry x="70" y="-380" width="20" height="60" as="geometry"/>
                </mxCell>
                <mxCell id="53" value="&amp;lt;e3" style="text;html=1;align=center;verticalAlign=middle;resizable=0;points=[];autosize=1;strokeColor=none;fillColor=none;" vertex="1" parent="1">
                    <mxGeometry x="40" y="-384.87" width="40" height="20" as="geometry"/>
                </mxCell>
                <mxCell id="54" value="=e3" style="text;html=1;align=center;verticalAlign=middle;resizable=0;points=[];autosize=1;strokeColor=none;fillColor=none;" vertex="1" parent="1">
                    <mxGeometry x="40" y="-359.87" width="40" height="20" as="geometry"/>
                </mxCell>
                <mxCell id="55" value="&amp;gt;e3" style="text;html=1;align=center;verticalAlign=middle;resizable=0;points=[];autosize=1;strokeColor=none;fillColor=none;" vertex="1" parent="1">
                    <mxGeometry x="40" y="-334.87" width="40" height="20" as="geometry"/>
                </mxCell>
                <mxCell id="56" value="" style="shape=curlyBracket;whiteSpace=wrap;html=1;rounded=1;" vertex="1" parent="1">
                    <mxGeometry x="369" y="-290" width="20" height="55" as="geometry"/>
                </mxCell>
                <mxCell id="57" value="&amp;lt;e2" style="text;html=1;align=center;verticalAlign=middle;resizable=0;points=[];autosize=1;strokeColor=none;fillColor=none;" vertex="1" parent="1">
                    <mxGeometry x="375.67" y="-290" width="40" height="20" as="geometry"/>
                </mxCell>
                <mxCell id="58" value="&amp;lt;=e2&amp;amp;&amp;amp;&amp;lt;=e4" style="text;html=1;align=center;verticalAlign=middle;resizable=0;points=[];autosize=1;strokeColor=none;fillColor=none;" vertex="1" parent="1">
                    <mxGeometry x="375.67" y="-272.5" width="90" height="20" as="geometry"/>
                </mxCell>
                <mxCell id="60" value="&amp;gt;e4" style="text;html=1;align=center;verticalAlign=middle;resizable=0;points=[];autosize=1;strokeColor=none;fillColor=none;" vertex="1" parent="1">
                    <mxGeometry x="375.67" y="-250" width="40" height="20" as="geometry"/>
                </mxCell>
                <mxCell id="62" value="" style="shape=singleArrow;whiteSpace=wrap;html=1;" vertex="1" parent="1">
                    <mxGeometry x="354.83" y="-772.5" width="65.17" height="12.5" as="geometry"/>
                </mxCell>
                <mxCell id="63" value="TimSort" style="html=1;dashed=0;whitespace=wrap;" vertex="1" parent="1">
                    <mxGeometry x="420" y="-780" width="80" height="30" as="geometry"/>
                </mxCell>
                <mxCell id="67" value="" style="shape=singleArrow;whiteSpace=wrap;html=1;" vertex="1" parent="1">
                    <mxGeometry x="500" y="-774.37" width="100" height="18.75" as="geometry"/>
                </mxCell>
                <mxCell id="68" value="寻找run&lt;br&gt;（升序或降序）" style="html=1;dashed=0;whitespace=wrap;" vertex="1" parent="1">
                    <mxGeometry x="600" y="-781.87" width="80" height="31.25" as="geometry"/>
                </mxCell>
                <mxCell id="69" value="" style="shape=singleArrow;direction=south;whiteSpace=wrap;html=1;" vertex="1" parent="1">
                    <mxGeometry x="635" y="-750.62" width="10" height="30.62" as="geometry"/>
                </mxCell>
                <mxCell id="70" value="run个数是否大于67" style="shape=rhombus;html=1;dashed=0;whitespace=wrap;perimeter=rhombusPerimeter;" vertex="1" parent="1">
                    <mxGeometry x="577.5" y="-720" width="125" height="60" as="geometry"/>
                </mxCell>
                <mxCell id="71" value="" style="shape=singleArrow;direction=west;whiteSpace=wrap;html=1;" vertex="1" parent="1">
                    <mxGeometry x="349" y="-697.5" width="231" height="15" as="geometry"/>
                </mxCell>
                <mxCell id="72" value="" style="shape=singleArrow;direction=south;whiteSpace=wrap;html=1;" vertex="1" parent="1">
                    <mxGeometry x="635" y="-660" width="10" height="30" as="geometry"/>
                </mxCell>
                <mxCell id="73" value="合并run栈" style="html=1;dashed=0;whitespace=wrap;" vertex="1" parent="1">
                    <mxGeometry x="590" y="-630" width="100" height="30" as="geometry"/>
                </mxCell>
                <mxCell id="74" value="" style="shape=singleArrow;whiteSpace=wrap;html=1;" vertex="1" parent="1">
                    <mxGeometry x="349" y="-647.5" width="81" height="25" as="geometry"/>
                </mxCell>
                <mxCell id="75" value="插入排序" style="html=1;dashed=0;whitespace=wrap;" vertex="1" parent="1">
                    <mxGeometry x="430" y="-650" width="100" height="30" as="geometry"/>
                </mxCell>
                <mxCell id="76" value="" style="shape=singleArrow;direction=south;whiteSpace=wrap;html=1;" vertex="1" parent="1">
                    <mxGeometry x="470" y="-620" width="20" height="40" as="geometry"/>
                </mxCell>
                <mxCell id="77" value="是否为左区间" style="shape=rhombus;html=1;dashed=0;whitespace=wrap;perimeter=rhombusPerimeter;" vertex="1" parent="1">
                    <mxGeometry x="434.5" y="-580" width="91" height="50" as="geometry"/>
                </mxCell>
                <mxCell id="79" value="双数插入" style="html=1;dashed=0;whitespace=wrap;" vertex="1" parent="1">
                    <mxGeometry x="535" y="-480" width="100" height="30" as="geometry"/>
                </mxCell>
                <mxCell id="80" value="" style="line;strokeWidth=2;html=1;" vertex="1" parent="1">
                    <mxGeometry x="525.5" y="-560" width="54.5" height="10" as="geometry"/>
                </mxCell>
                <mxCell id="82" value="" style="endArrow=classic;html=1;" edge="1" parent="1">
                    <mxGeometry width="50" height="50" relative="1" as="geometry">
                        <mxPoint x="580" y="-559" as="sourcePoint"/>
                        <mxPoint x="580" y="-480" as="targetPoint"/>
                    </mxGeometry>
                </mxCell>
                <mxCell id="83" value="" style="shape=singleArrow;direction=south;whiteSpace=wrap;html=1;" vertex="1" parent="1">
                    <mxGeometry x="475" y="-530" width="10" height="50" as="geometry"/>
                </mxCell>
                <mxCell id="84" value="传统插入" style="html=1;dashed=0;whitespace=wrap;" vertex="1" parent="1">
                    <mxGeometry x="440" y="-480" width="74" height="30" as="geometry"/>
                </mxCell>
                <mxCell id="86" value="" style="line;strokeWidth=2;html=1;" vertex="1" parent="1">
                    <mxGeometry x="10" y="50" width="309" height="10" as="geometry"/>
                </mxCell>
                <mxCell id="87" value="" style="line;strokeWidth=4;direction=south;html=1;perimeter=backbonePerimeter;points=[];outlineConnect=0;" vertex="1" parent="1">
                    <mxGeometry x="10" y="-700" width="10" height="755" as="geometry"/>
                </mxCell>
                <mxCell id="89" value="" style="endArrow=classic;html=1;entryX=0;entryY=0.5;entryDx=0;entryDy=0;" edge="1" parent="1" target="9">
                    <mxGeometry width="50" height="50" relative="1" as="geometry">
                        <mxPoint x="10" y="-697.5" as="sourcePoint"/>
                        <mxPoint x="60" y="-747.5" as="targetPoint"/>
                    </mxGeometry>
                </mxCell>
                <mxCell id="90" value="" style="endArrow=classic;html=1;" edge="1" parent="1" target="87">
                    <mxGeometry width="50" height="50" relative="1" as="geometry">
                        <mxPoint x="90" y="-275" as="sourcePoint"/>
                        <mxPoint x="140" y="-325" as="targetPoint"/>
                    </mxGeometry>
                </mxCell>
                <mxCell id="91" value="否" style="text;html=1;align=center;verticalAlign=middle;resizable=0;points=[];autosize=1;strokeColor=none;fillColor=none;" vertex="1" parent="1">
                    <mxGeometry x="645" y="-660" width="30" height="20" as="geometry"/>
                </mxCell>
                <mxCell id="92" value="是" style="text;html=1;align=center;verticalAlign=middle;resizable=0;points=[];autosize=1;strokeColor=none;fillColor=none;" vertex="1" parent="1">
                    <mxGeometry x="465" y="-717.5" width="30" height="20" as="geometry"/>
                </mxCell>
                <mxCell id="93" value="否" style="text;html=1;align=center;verticalAlign=middle;resizable=0;points=[];autosize=1;strokeColor=none;fillColor=none;" vertex="1" parent="1">
                    <mxGeometry x="359" y="-660" width="30" height="20" as="geometry"/>
                </mxCell>
                <mxCell id="94" value="是" style="text;html=1;align=center;verticalAlign=middle;resizable=0;points=[];autosize=1;strokeColor=none;fillColor=none;" vertex="1" parent="1">
                    <mxGeometry x="309" y="-610" width="30" height="20" as="geometry"/>
                </mxCell>
                <mxCell id="95" value="是" style="text;html=1;align=center;verticalAlign=middle;resizable=0;points=[];autosize=1;strokeColor=none;fillColor=none;" vertex="1" parent="1">
                    <mxGeometry x="212.33" y="-444.25" width="30" height="20" as="geometry"/>
                </mxCell>
                <mxCell id="96" value="否" style="text;html=1;align=center;verticalAlign=middle;resizable=0;points=[];autosize=1;strokeColor=none;fillColor=none;" vertex="1" parent="1">
                    <mxGeometry x="304" y="-379.87" width="30" height="20" as="geometry"/>
                </mxCell>
                <mxCell id="97" value="是" style="text;html=1;align=center;verticalAlign=middle;resizable=0;points=[];autosize=1;strokeColor=none;fillColor=none;" vertex="1" parent="1">
                    <mxGeometry x="366.5" y="-190" width="30" height="20" as="geometry"/>
                </mxCell>
                <mxCell id="98" value="否" style="text;html=1;align=center;verticalAlign=middle;resizable=0;points=[];autosize=1;strokeColor=none;fillColor=none;" vertex="1" parent="1">
                    <mxGeometry x="305" y="-120" width="30" height="20" as="geometry"/>
                </mxCell>
                <mxCell id="99" value="是" style="text;html=1;align=center;verticalAlign=middle;resizable=0;points=[];autosize=1;strokeColor=none;fillColor=none;" vertex="1" parent="1">
                    <mxGeometry x="366.5" y="-790" width="30" height="20" as="geometry"/>
                </mxCell>
                <mxCell id="100" value="否" style="text;html=1;align=center;verticalAlign=middle;resizable=0;points=[];autosize=1;strokeColor=none;fillColor=none;" vertex="1" parent="1">
                    <mxGeometry x="309" y="-735" width="30" height="20" as="geometry"/>
                </mxCell>
                <mxCell id="101" value="工业双轴快排流程图" style="text;html=1;align=center;verticalAlign=middle;resizable=0;points=[];autosize=1;strokeColor=none;fillColor=none;strokeWidth=5;fontStyle=1;fontSize=60;" vertex="1" parent="1">
                    <mxGeometry x="99" y="-930" width="560" height="80" as="geometry"/>
                </mxCell>
                <mxCell id="104" style="edgeStyle=none;html=1;fontSize=14;" edge="1" parent="1">
                    <mxGeometry relative="1" as="geometry">
                        <mxPoint x="530" y="-510" as="targetPoint"/>
                        <mxPoint x="525" y="-510" as="sourcePoint"/>
                    </mxGeometry>
                </mxCell>
                <mxCell id="105" value="是" style="text;html=1;align=center;verticalAlign=middle;resizable=0;points=[];autosize=1;strokeColor=none;fillColor=none;fontSize=14;" vertex="1" parent="1">
                    <mxGeometry x="485" y="-520" width="30" height="20" as="geometry"/>
                </mxCell>
                <mxCell id="106" value="否" style="text;html=1;align=center;verticalAlign=middle;resizable=0;points=[];autosize=1;strokeColor=none;fillColor=none;fontSize=14;" vertex="1" parent="1">
                    <mxGeometry x="535" y="-580" width="30" height="20" as="geometry"/>
                </mxCell>
            </root>
        </mxGraphModel>
    </diagram>
</mxfile>
